<mxfile host="app.diagrams.net" modified="2023-07-20T03:10:43.612Z" agent="Mozilla/5.0 (Macintosh; Intel Mac OS X 10_15_7) AppleWebKit/537.36 (KHTML, like Gecko) Chrome/114.0.0.0 Safari/537.36" version="21.6.3" etag="5Jd1K94HtvB1uwjigYXk" type="github">
  <diagram name="第 1 页" id="yUdO4xcYojDsIHdRHsY_">
    <mxGraphModel>
      <root>
        <mxCell id="0" />
        <mxCell id="1" parent="0" />
      </root>
    </mxGraphModel>
  </diagram>
</mxfile>
